<?xml version="1.0" encoding="UTF-8"?>
<svg version="1.1" xmlns="http://www.w3.org/2000/svg" width="500" height="500">
<path d="M0 0 C165 0 330 0 500 0 C500 165 500 330 500 500 C335 500 170 500 0 500 C0 335 0 170 0 0 Z " fill="#000000" transform="translate(0,0)"/>
<path d="M0 0 C1.32 0.33 2.64 0.66 4 1 C3.27463631 5.86024025 1.4765097 10.18669559 -0.33203125 14.72265625 C-0.67618576 15.59632339 -1.02034027 16.46999054 -1.37492371 17.37013245 C-2.12410637 19.27122414 -2.87510052 21.17160273 -3.62768555 23.0713501 C-5.66292885 28.20946922 -7.68494408 33.35278572 -9.70703125 38.49609375 C-10.13275421 39.57826172 -10.55847717 40.66042969 -10.99710083 41.77539062 C-16.52519043 55.84964611 -21.92714564 69.97272486 -27.32730103 84.09646606 C-28.57082665 87.34875711 -29.81657947 90.60018835 -31.0625 93.8515625 C-31.43255661 94.82243301 -31.80261322 95.79330353 -32.18388367 96.79359436 C-32.52667862 97.68751389 -32.86947357 98.58143341 -33.22265625 99.50244141 C-33.51922119 100.27858795 -33.81578613 101.0547345 -34.12133789 101.85440063 C-34.98453855 103.96224479 -35.95406491 105.97746863 -37 108 C-37.99 108 -38.98 108 -40 108 C-39.49853575 100.83415636 -37.28201575 94.84098836 -34.65234375 88.19140625 C-34.20824158 87.04716187 -33.7641394 85.90291748 -33.30657959 84.72399902 C-32.1066948 81.63757001 -30.89889223 78.55448023 -29.68722153 75.47267532 C-28.43252473 72.27590057 -27.18808261 69.07513952 -25.94262695 65.87475586 C-23.93277497 60.71380975 -21.91703025 55.55520584 -19.89648438 50.3984375 C-17.258572 43.66570708 -14.63465345 36.92759617 -12.015625 30.1875 C-9.28942406 23.1767196 -6.56250549 16.1662266 -3.82421875 9.16015625 C-3.54922546 8.45459595 -3.27423218 7.74903564 -2.99090576 7.02209473 C-1.11588893 2.23177785 -1.11588893 2.23177785 0 0 Z " fill="#1FB857" transform="translate(268,196)"/>
<path d="M0 0 C5.4005499 0.37751417 8.73744368 3.51450011 12.8125 6.75 C13.55226074 7.32621094 14.29202148 7.90242187 15.05419922 8.49609375 C20.954668 13.1133076 26.78159876 17.82507969 32.55786133 22.59667969 C33.17040771 23.10102539 33.7829541 23.60537109 34.4140625 24.125 C35.00219727 24.6096875 35.59033203 25.094375 36.19628906 25.59375 C38.05841558 27.04554328 39.98939929 28.32712838 41.9609375 29.625 C42.96382813 30.40875 43.96671875 31.1925 45 32 C45 36 45 36 43.69335938 37.44116211 C43.08298828 37.88210205 42.47261719 38.32304199 41.84375 38.77734375 C41.15853271 39.28450928 40.47331543 39.7916748 39.76733398 40.31420898 C39.01911377 40.84989502 38.27089355 41.38558105 37.5 41.9375 C35.93711593 43.09146983 34.37596033 44.24778375 32.81640625 45.40625 C32.01605957 45.99792969 31.21571289 46.58960938 30.39111328 47.19921875 C25.99967734 50.5064713 21.77181418 54.01246811 17.53125 57.50952148 C15.6960014 59.01715105 13.84892027 60.50918436 12 62 C10.95996826 62.86455811 10.95996826 62.86455811 9.89892578 63.74658203 C8.85260986 64.58552002 8.85260986 64.58552002 7.78515625 65.44140625 C7.15617432 65.95517822 6.52719238 66.4689502 5.87915039 66.99829102 C4 68 4 68 1.76342773 67.65991211 C1.18149658 67.44214111 0.59956543 67.22437012 0 67 C1.33768761 63.90943762 2.64552336 62.21166407 5.3515625 60.22265625 C6.0307373 59.71516846 6.70991211 59.20768066 7.40966797 58.68481445 C8.14072754 58.14945068 8.87178711 57.61408691 9.625 57.0625 C11.16308969 55.91363915 12.69950468 54.76253337 14.234375 53.609375 C15.41483398 52.72282227 15.41483398 52.72282227 16.61914062 51.81835938 C21.13713182 48.3677853 25.51951526 44.75089711 29.90869141 41.13891602 C30.53437012 40.62514404 31.16004883 40.11137207 31.8046875 39.58203125 C32.35108887 39.13061768 32.89749023 38.6792041 33.46044922 38.21411133 C34.91628182 37.06602133 36.45732418 36.02845055 38 35 C36.67287174 31.01861522 34.73745389 30.0536611 31.375 27.5625 C30.18900621 26.67333761 29.00415666 25.78264744 27.8203125 24.890625 C26.88493652 24.18776367 26.88493652 24.18776367 25.93066406 23.47070312 C22.00661228 20.48151649 18.17957075 17.36968013 14.34106445 14.27197266 C10.11946224 10.87186842 5.83345988 7.5811229 1.44140625 4.40234375 C0.96574219 3.93957031 0.49007813 3.47679687 0 3 C0 2.01 0 1.02 0 0 Z " fill="#20BA58" transform="translate(275,216)"/>
<path d="M0 0 C-0.22828515 3.28730621 -1.13557577 4.1222998 -3.6328125 6.375 C-4.78944808 7.25979412 -5.95411035 8.13415709 -7.125 9 C-8.4017419 9.97173692 -9.67775855 10.94442731 -10.953125 11.91796875 C-11.61763672 12.42118652 -12.28214844 12.9244043 -12.96679688 13.44287109 C-16.31615864 16.00798028 -19.59193051 18.66345696 -22.875 21.3125 C-27.84748135 25.30679875 -32.85909515 29.22300868 -38 33 C-36.7231924 36.83042281 -34.44150769 38.20289127 -31.3125 40.5 C-30.1244058 41.39243866 -28.93692682 42.28569684 -27.75 43.1796875 C-27.13253906 43.64213867 -26.51507813 44.10458984 -25.87890625 44.58105469 C-22.82436428 46.88783716 -19.81819826 49.25513048 -16.8125 51.625 C-16.23201904 52.08173096 -15.65153809 52.53846191 -15.0534668 53.0090332 C-10.01373334 56.97863266 -4.99941061 60.97973663 0 65 C-0.495 66.485 -0.495 66.485 -1 68 C-4.1026833 67.39854629 -6.05606664 66.4453546 -8.546875 64.515625 C-9.55548584 63.74025391 -9.55548584 63.74025391 -10.58447266 62.94921875 C-11.29909668 62.38847656 -12.0137207 61.82773437 -12.75 61.25 C-13.49427246 60.67378906 -14.23854492 60.09757812 -15.00537109 59.50390625 C-20.92987427 54.8952651 -26.77113741 50.18396429 -32.55761719 45.40332031 C-33.17024414 44.89897461 -33.78287109 44.39462891 -34.4140625 43.875 C-35.00219727 43.3903125 -35.59033203 42.905625 -36.19628906 42.40625 C-38.05841558 40.95445672 -39.98939929 39.67287162 -41.9609375 38.375 C-42.96382812 37.59125 -43.96671875 36.8075 -45 36 C-45 32 -45 32 -43.69335938 30.55883789 C-42.77780273 29.89742798 -42.77780273 29.89742798 -41.84375 29.22265625 C-41.15853271 28.71549072 -40.47331543 28.2083252 -39.76733398 27.68579102 C-39.01911377 27.15010498 -38.27089355 26.61441895 -37.5 26.0625 C-35.93711593 24.90853017 -34.37596033 23.75221625 -32.81640625 22.59375 C-32.01605957 22.00207031 -31.21571289 21.41039062 -30.39111328 20.80078125 C-25.99967734 17.4935287 -21.77181418 13.98753189 -17.53125 10.49047852 C-15.69596629 8.98282011 -13.85084624 7.48850359 -12 6 C-11.30664551 5.43522949 -10.61329102 4.87045898 -9.89892578 4.28857422 C-9.20138184 3.73830566 -8.50383789 3.18803711 -7.78515625 2.62109375 C-7.15617432 2.11892334 -6.52719238 1.61675293 -5.87915039 1.09936523 C-4 0 -4 0 0 0 Z " fill="#1FBA58" transform="translate(225,216)"/>
<path d="M0 0 C3.13081955 1.87849173 4.60532936 4.81403569 5.875 8.125 C6 10.875 6 10.875 4.875 13.125 C2 15 2 15 -1.125 16.125 C-4.125 15.125 -4.125 15.125 -5.29296875 13.1640625 C-5.62941406 12.36742187 -5.96585937 11.57078125 -6.3125 10.75 C-6.65667969 9.95851563 -7.00085938 9.16703125 -7.35546875 8.3515625 C-8.125 6.125 -8.125 6.125 -8.125 3.125 C-2.92814961 0.17224409 -2.92814961 0.17224409 0 0 Z " fill="#E7E7E7" transform="translate(308.125,367.875)"/>
<path d="M0 0 C3.3 0 6.6 0 10 0 C11.59138085 4.17737474 12.21278058 7.53160785 12 12 C8.38026598 13.31626692 5.90432869 14 2 14 C1.66179834 12.4176994 1.32964061 10.83410625 1 9.25 C0.814375 8.36828125 0.62875 7.4865625 0.4375 6.578125 C0 4 0 4 0 0 Z " fill="#F4F4F4" transform="translate(263,380)"/>
<path d="M0 0 C3.5 0.25 3.5 0.25 5.5 2.25 C5.765625 4.5625 5.765625 4.5625 5.75 7.25 C5.75515625 8.136875 5.7603125 9.02375 5.765625 9.9375 C5.5 12.25 5.5 12.25 3.5 14.25 C0 14.5 0 14.5 -3.5 14.25 C-5.5 12.25 -5.5 12.25 -5.765625 9.9375 C-5.76046875 9.050625 -5.7553125 8.16375 -5.75 7.25 C-5.75515625 6.363125 -5.7603125 5.47625 -5.765625 4.5625 C-5.30264583 0.53185785 -3.88850494 0.27775035 0 0 Z " fill="#DDDDDD" transform="translate(262.5,104.75)"/>
<path d="M0 0 C3.35595828 0.59927826 5.37801226 1.84622436 8 4 C7.55530671 9.03985731 5.28656638 11.37634988 2 15 C-0.67857172 14.63803085 -2.60980914 14.26012724 -4.875 12.75 C-6 11 -6 11 -6 8.6875 C-4.6452245 5.04654085 -2.60632998 2.87364587 0 0 Z " fill="#E6E6E6" transform="translate(175,355)"/>
<path d="M0 0 C4.13263259 0.34438605 7.38108204 2.06429969 11 4 C10.125 11.875 10.125 11.875 9 13 C7.0390625 12.94921875 7.0390625 12.94921875 4.625 12.6875 C3.43777344 12.56955078 3.43777344 12.56955078 2.2265625 12.44921875 C0 12 0 12 -3 10 C-2.25 2.25 -2.25 2.25 0 0 Z " fill="#E8E8E8" transform="translate(370,299)"/>
<path d="M0 0 C2.5 0.1875 2.5 0.1875 4.5 1.1875 C6.17654729 0.90807545 7.84608154 0.57921753 9.5 0.1875 C9.17 1.1775 8.84 2.1675 8.5 3.1875 C6.4375 3.875 6.4375 3.875 4.5 4.1875 C4.5 5.1775 4.5 6.1675 4.5 7.1875 C6.15 7.1875 7.8 7.1875 9.5 7.1875 C9.5 8.1775 9.5 9.1675 9.5 10.1875 C6.35069107 11.23726964 4.11185544 11.28881595 0.8125 11.25 C-0.18136719 11.24097656 -1.17523438 11.23195312 -2.19921875 11.22265625 C-3.33810547 11.20525391 -3.33810547 11.20525391 -4.5 11.1875 C-4.55399736 9.72957116 -4.59279177 8.27107288 -4.625 6.8125 C-4.65980469 5.59433594 -4.65980469 5.59433594 -4.6953125 4.3515625 C-4.39467551 1.02050465 -3.2622371 0.24466778 0 0 Z " fill="#C5C5C5" transform="translate(380.5,242.8125)"/>
<path d="M0 0 C2.31 1.98 4.62 3.96 7 6 C6.8125 8.375 6.8125 8.375 6 11 C3.625 12.0625 3.625 12.0625 1 13 C-0.80348078 15.01317219 -0.80348078 15.01317219 -2 17 C-3.10844919 13.67465243 -2.84454356 11.37817425 -2 8 C-2.598125 8.515625 -3.19625 9.03125 -3.8125 9.5625 C-4.534375 10.036875 -5.25625 10.51125 -6 11 C-6.99 10.67 -7.98 10.34 -9 10 C-8.06409496 8.8944811 -7.12620142 7.79064547 -6.1875 6.6875 C-5.66542969 6.07261719 -5.14335937 5.45773437 -4.60546875 4.82421875 C-3.13668249 3.15530589 -1.57203741 1.57203741 0 0 Z " fill="#E9E9E9" transform="translate(161,341)"/>
<path d="M0 0 C0.89589844 0.10699219 1.79179688 0.21398437 2.71484375 0.32421875 C4.06255859 0.47310547 4.06255859 0.47310547 5.4375 0.625 C7.65234375 1.01171875 7.65234375 1.01171875 8.65234375 2.01171875 C8.79349536 4.68230726 8.69481482 7.33604113 8.65234375 10.01171875 C7.99234375 9.68171875 7.33234375 9.35171875 6.65234375 9.01171875 C6.65234375 7.36171875 6.65234375 5.71171875 6.65234375 4.01171875 C5.66234375 4.01171875 4.67234375 4.01171875 3.65234375 4.01171875 C4.31234375 6.32171875 4.97234375 8.63171875 5.65234375 11.01171875 C4.00659809 11.03860026 2.36072962 11.05805998 0.71484375 11.07421875 C-0.20167969 11.08582031 -1.11820312 11.09742188 -2.0625 11.109375 C-4.34765625 11.01171875 -4.34765625 11.01171875 -5.34765625 10.01171875 C-4.55487988 0.02273651 -4.55487988 0.02273651 0 0 Z " fill="#EAEAEA" transform="translate(116.34765625,216.98828125)"/>
<path d="M0 0 C1.65 0.33 3.3 0.66 5 1 C5.33 1.99 5.66 2.98 6 4 C7.98 3.67 9.96 3.34 12 3 C12 3.99 12 4.98 12 6 C10.02 6.33 8.04 6.66 6 7 C5.67 7.99 5.34 8.98 5 10 C6.32 10.33 7.64 10.66 9 11 C9 11.66 9 12.32 9 13 C4.428721 12.45144652 0.32564205 11.58255197 -4 10 C-3.5205537 5.78087253 -2.83374881 3.20336822 0 0 Z " fill="#E8E8E8" transform="translate(119,197)"/>
<path d="M0 0 C1.58294782 -0.05437607 3.16644256 -0.09296271 4.75 -0.125 C5.63171875 -0.14820313 6.5134375 -0.17140625 7.421875 -0.1953125 C10.1135858 0.00860498 11.69904974 0.63448279 14 2 C14 2.99 14 3.98 14 5 C12.68 5.33 11.36 5.66 10 6 C10 7.98 10 9.96 10 12 C5.44467216 11.73203954 3.11441418 9.82300375 0.09375 6.6328125 C-1 5 -1 5 -0.875 2.125 C-0.58625 1.42375 -0.2975 0.7225 0 0 Z " fill="#E7E7E7" transform="translate(125,180)"/>
<path d="M0 0 C3.91392131 1.45634281 5.88118591 4.28744806 7.6875 8 C7.6875 9.32 7.6875 10.64 7.6875 12 C5.0475 11.67 2.4075 11.34 -0.3125 11 C-0.6425 12.32 -0.9725 13.64 -1.3125 15 C-4.11295623 11.85408067 -4.66511589 9.932936 -4.5 5.75 C-4.47292969 4.85796875 -4.44585937 3.9659375 -4.41796875 3.046875 C-4.38316406 2.37140625 -4.34835938 1.6959375 -4.3125 1 C-2.3125 0 -2.3125 0 0 0 Z " fill="#E7E7E7" transform="translate(202.3125,113)"/>
<path d="M0 0 C0.99 0 1.98 0 3 0 C3 2.64 3 5.28 3 8 C3.99 8 4.98 8 6 8 C6 5.69 6 3.38 6 1 C6.99 1 7.98 1 9 1 C9 3.31 9 5.62 9 8 C9.66 8 10.32 8 11 8 C11 5.69 11 3.38 11 1 C11.99 1 12.98 1 14 1 C14 4.3 14 7.6 14 11 C9.38 11 4.76 11 0 11 C0 7.37 0 3.74 0 0 Z " fill="#DFDFDF" transform="translate(376,262)"/>
<path d="M0 0 C1.69141656 0.08963062 3.37959602 0.24577676 5.0625 0.4375 C6.44115234 0.59025391 6.44115234 0.59025391 7.84765625 0.74609375 C8.55792969 0.82988281 9.26820313 0.91367187 10 1 C10 1.99 10 2.98 10 4 C4.25 4.125 4.25 4.125 2 3 C2 3.99 2 4.98 2 6 C4.31 6.33 6.62 6.66 9 7 C9 7.66 9 8.32 9 9 C6.36 9 3.72 9 1 9 C1 9.66 1 10.32 1 11 C3.31 11.33 5.62 11.66 8 12 C8 12.99 8 13.98 8 15 C4.7 14.67 1.4 14.34 -2 14 C-1.85970581 11.8537974 -1.71261836 9.70803782 -1.5625 7.5625 C-1.48128906 6.36753906 -1.40007812 5.17257812 -1.31640625 3.94140625 C-1 1 -1 1 0 0 Z " fill="#E2E2E2" transform="translate(226,378)"/>
<path d="M0 0 C2.5625 0.1875 2.5625 0.1875 4.5625 2.1875 C4.6875 5.8125 4.6875 5.8125 4.5625 9.1875 C5.8825 9.5175 7.2025 9.8475 8.5625 10.1875 C8.5625 11.1775 8.5625 12.1675 8.5625 13.1875 C3.59333364 12.67344831 -0.72776351 11.95365118 -5.4375 10.1875 C-5.12951674 8.70738629 -4.815982 7.22842675 -4.5 5.75 C-4.32597656 4.92628906 -4.15195312 4.10257812 -3.97265625 3.25390625 C-3.21300525 0.32065532 -3.07729923 0.23671533 0 0 Z " fill="#E5E5E5" transform="translate(377.4375,280.8125)"/>
<path d="M0 0 C5 1 5 1 7 3 C7.33 2.01 7.66 1.02 8 0 C8.99 0 9.98 0 11 0 C11 4.62 11 9.24 11 14 C10.01 14 9.02 14 8 14 C7.71125 12.88625 7.4225 11.7725 7.125 10.625 C6.30758671 6.99708908 6.30758671 6.99708908 4 5 C3.67 7.64 3.34 10.28 3 13 C2.01 13 1.02 13 0 13 C0 8.71 0 4.42 0 0 Z " fill="#E5E5E5" transform="translate(244,381)"/>
<path d="M0 0 C0.99 0.33 1.98 0.66 3 1 C1.68 3.31 0.36 5.62 -1 8 C0.175625 7.01 0.175625 7.01 1.375 6 C4 4 4 4 6 4 C5.37240135 6.92879371 4.41377341 9.36095629 3 12 C3.763125 11.175 4.52625 10.35 5.3125 9.5 C8 7 8 7 11 7 C9.64978174 11.41889613 7.73884332 13.34345343 4 16 C1.03 13.69 -1.94 11.38 -5 9 C-3.96846241 4.87384964 -2.71595986 3.1540179 0 0 Z " fill="#E6E6E6" transform="translate(351,332)"/>
<path d="M0 0 C-1.75 3.875 -1.75 3.875 -4 5 C-4.33 5.99 -4.66 6.98 -5 8 C-4.236875 7.484375 -3.47375 6.96875 -2.6875 6.4375 C-1.800625 5.963125 -0.91375 5.48875 0 5 C0.99 5.33 1.98 5.66 3 6 C1.35 7.98 -0.3 9.96 -2 12 C-0.576875 11.2575 -0.576875 11.2575 0.875 10.5 C4 9 4 9 6 9 C6 9.99 6 10.98 6 12 C0.85714286 16 0.85714286 16 -3 16 C-4.60546875 14.13671875 -4.60546875 14.13671875 -6.1875 11.6875 C-6.71730469 10.88699219 -7.24710937 10.08648437 -7.79296875 9.26171875 C-9 7 -9 7 -9 4 C-3.85714286 0 -3.85714286 0 0 0 Z " fill="#E7E7E7" transform="translate(326,358)"/>
<path d="M0 0 C4.7707929 0.43370845 8.63364259 2.64334391 12 6 C12 6.99 12 7.98 12 9 C11.484375 8.835 10.96875 8.67 10.4375 8.5 C7.26636124 7.84951 4.22781666 7.9379266 1 8 C2.485 9.1446875 2.485 9.1446875 4 10.3125 C5.6875 11.61328125 5.6875 11.61328125 7 13 C7 13.99 7 14.98 7 16 C4.2347607 14.78329471 1.74946103 13.24570702 -0.75 11.5625 C-1.36359375 11.15128906 -1.9771875 10.74007812 -2.609375 10.31640625 C-3.06828125 9.88199219 -3.5271875 9.44757813 -4 9 C-4 8.01 -4 7.02 -4 6 C-0.535 5.505 -0.535 5.505 3 5 C3 4.34 3 3.68 3 3 C2.01 2.67 1.02 2.34 0 2 C0 1.34 0 0.68 0 0 Z " fill="#E5E5E5" transform="translate(137,160)"/>
<path d="M0 0 C6.75 0.875 6.75 0.875 9 2 C9 3.32 9 4.64 9 6 C8.34 6 7.68 6 7 6 C7 5.34 7 4.68 7 4 C4.03 3.505 4.03 3.505 1 3 C1 3.99 1 4.98 1 6 C3.97 6.495 3.97 6.495 7 7 C8.125 11.75 8.125 11.75 7 14 C0.9453125 14.1953125 0.9453125 14.1953125 -1 14 C-1.66 13.34 -2.32 12.68 -3 12 C-3 11.01 -3 10.02 -3 9 C-2.01 9 -1.02 9 0 9 C0 9.66 0 10.32 0 11 C1.65 11.33 3.3 11.66 5 12 C5 11.01 5 10.02 5 9 C3.5459375 8.62875 3.5459375 8.62875 2.0625 8.25 C-1 7 -1 7 -2 5.0625 C-2 3 -2 3 0 0 Z " fill="#EDEDED" transform="translate(279,108)"/>
<path d="M0 0 C1.32 0.33 2.64 0.66 4 1 C4.33 2.65 4.66 4.3 5 6 C5.66 6 6.32 6 7 6 C7.33 5.01 7.66 4.02 8 3 C8.66 3.33 9.32 3.66 10 4 C8.68938409 8.23429756 7.05643741 12.07407404 5 16 C4.01 16 3.02 16 2 16 C2.20625 14.906875 2.4125 13.81375 2.625 12.6875 C3.40346525 8.9161599 3.40346525 8.9161599 1 6 C0.01 7.98 -0.98 9.96 -2 12 C-2.99 12 -3.98 12 -5 12 C-3.68938409 7.76570244 -2.05643741 3.92592596 0 0 Z " fill="#E6E6E6" transform="translate(190,365)"/>
<path d="M0 0 C0.99 0 1.98 0 3 0 C2.608125 1.19625 2.21625 2.3925 1.8125 3.625 C0.90056809 7.15952231 0.95805694 7.89323585 2.375 11.5 C2.91125 12.325 3.4475 13.15 4 14 C0.20411134 13.45773019 -1.47211993 11.79872437 -4 9 C-4 10.65 -4 12.3 -4 14 C-4.99 14 -5.98 14 -7 14 C-7 9.71 -7 5.42 -7 1 C-6.01 1 -5.02 1 -4 1 C-4 2.65 -4 4.3 -4 6 C-3.34 6 -2.68 6 -2 6 C-1.34 4.02 -0.68 2.04 0 0 Z " fill="#E4E4E4" transform="translate(244,104)"/>
<path d="M0 0 C0.66 0 1.32 0 2 0 C2.556875 1.670625 2.556875 1.670625 3.125 3.375 C4.4794021 6.61378762 4.76212803 6.89272441 8.1875 8.4375 C9.5796875 8.7159375 9.5796875 8.7159375 11 9 C10.67 9.66 10.34 10.32 10 11 C7.36 10.67 4.72 10.34 2 10 C2.495 10.61875 2.99 11.2375 3.5 11.875 C5 14 5 14 5 16 C1.37386801 15.43040847 -0.25517741 14.07625466 -2.75 11.4375 C-3.36359375 10.79683594 -3.9771875 10.15617188 -4.609375 9.49609375 C-5.06828125 9.00238281 -5.5271875 8.50867188 -6 8 C-5.67 7.34 -5.34 6.68 -5 6 C-2.525 6.99 -2.525 6.99 0 8 C0 5.36 0 2.72 0 0 Z " fill="#E8E8E8" transform="translate(151,144)"/>
<path d="M0 0 C3.7758544 0.52442422 6.22372155 1.32654667 9 4 C9 4.99 9 5.98 9 7 C7.68 6.67 6.36 6.34 5 6 C4.01 7.98 3.02 9.96 2 12 C2.99 13.485 2.99 13.485 4 15 C3.01 15.33 2.02 15.66 1 16 C-0.82421875 15.00390625 -0.82421875 15.00390625 -2.6875 13.5625 C-3.31011719 13.08941406 -3.93273437 12.61632812 -4.57421875 12.12890625 C-5.04472656 11.75636719 -5.51523437 11.38382813 -6 11 C-5.67 10.34 -5.34 9.68 -5 9 C-3.68 9 -2.36 9 -1 9 C1.36692966 6.15173402 1.36692966 6.15173402 0.625 2.8125 C0.41875 1.884375 0.2125 0.95625 0 0 Z " fill="#E5E5E5" transform="translate(317,123)"/>
<path d="M0 0 C-0.2475 0.7425 -0.495 1.485 -0.75 2.25 C-0.8325 3.1575 -0.915 4.065 -1 5 C0.83358335 7.33454661 0.83358335 7.33454661 3 9 C3.99 8.67 4.98 8.34 6 8 C5.66354211 11.14027363 4.94763914 12.05098295 2.625 14.3125 C1.325625 15.1478125 1.325625 15.1478125 0 16 C-0.99 15.67 -1.98 15.34 -3 15 C-2.34 13.68 -1.68 12.36 -1 11 C-2.15684329 8.9004467 -2.15684329 8.9004467 -4 7 C-6.62625139 6.66574265 -6.62625139 6.66574265 -9 7 C-7.16766277 2.5718517 -4.96404317 0 0 0 Z " fill="#E4E4E4" transform="translate(170,131)"/>
<path d="M0 0 C2.9896432 0.59792864 4.41749331 1.26323356 6.5 3.5 C6.75 6.1875 6.75 6.1875 6.5 8.5 C5.51 8.17 4.52 7.84 3.5 7.5 C3.5 6.51 3.5 5.52 3.5 4.5 C2.18 4.17 0.86 3.84 -0.5 3.5 C-2.12831762 5.30961577 -2.12831762 5.30961577 -3.5 7.5 C-2.83131686 10.61332248 -2.83131686 10.61332248 -0.4375 11.6875 C0.201875 11.955625 0.84125 12.22375 1.5 12.5 C1.17 13.16 0.84 13.82 0.5 14.5 C-2.17857172 14.13803085 -4.10980914 13.76012724 -6.375 12.25 C-7.5 10.5 -7.5 10.5 -7.4375 8.125 C-5.99518737 4.08652464 -4.42343906 0.88468781 0 0 Z " fill="#ECECEC" transform="translate(335.5,135.5)"/>
<path d="M0 0 C-0.33 0.99 -0.66 1.98 -1 3 C-2.98 3.33 -4.96 3.66 -7 4 C-6.505 4.78375 -6.01 5.5675 -5.5 6.375 C-4 9 -4 9 -4 11 C-2.35 10.67 -0.7 10.34 1 10 C1.33 9.01 1.66 8.02 2 7 C2.66 7 3.32 7 4 7 C3.6875 9.375 3.6875 9.375 3 12 C0 14 0 14 -2.375 14.625 C-6.22435652 13.70848654 -7.22633626 11.36961638 -9.27734375 8.140625 C-10 6 -10 6 -9.31640625 3.859375 C-6.67692895 0.13121121 -4.29300293 -0.23205421 0 0 Z " fill="#E4E4E4" transform="translate(188,121)"/>
<path d="M0 0 C4.04648443 1.34882814 4.95502599 3.34826069 7 7 C6.67 7.99 6.34 8.98 6 10 C4.02 8.35 2.04 6.7 0 5 C0.33 5.598125 0.66 6.19625 1 6.8125 C2 9 2 9 2 12 C-1.875 10.25 -1.875 10.25 -3 8 C-4.98 8.66 -6.96 9.32 -9 10 C-8.61855607 7.34723083 -8.18209887 6.18169057 -6.2578125 4.26171875 C-5.20207031 3.48248047 -5.20207031 3.48248047 -4.125 2.6875 C-3.42632812 2.15511719 -2.72765625 1.62273437 -2.0078125 1.07421875 C-1.34523437 0.71972656 -0.68265625 0.36523438 0 0 Z " fill="#ECECEC" transform="translate(149,327)"/>
<path d="M0 0 C2.57798841 0.36363205 3.69164073 0.59533633 5.30078125 2.70703125 C5.63464844 3.40183594 5.96851563 4.09664063 6.3125 4.8125 C6.65925781 5.49957031 7.00601562 6.18664062 7.36328125 6.89453125 C8.10314333 9.34106905 7.82973374 10.61786119 7 13 C5.375 13.6875 5.375 13.6875 3 14 C-0.61718599 12.52359755 -3.4449161 10.98093122 -6 8 C-5.67 7.01 -5.34 6.02 -5 5 C-1.7 6.98 1.6 8.96 5 11 C4.360625 9.741875 3.72125 8.48375 3.0625 7.1875 C1.8393529 4.78066217 0.85745505 2.57236515 0 0 Z " fill="#EAEAEA" transform="translate(338,346)"/>
<path d="M0 0 C3.71888239 0.50712033 6.73454239 1.11608215 10 3 C10 3.99 10 4.98 10 6 C8.35 5.67 6.7 5.34 5 5 C4.87625 5.7425 4.7525 6.485 4.625 7.25 C4.04513299 9.80141485 3.26291261 11.7267573 2 14 C1.34 14 0.68 14 0 14 C0.55105909 10.0507432 1.38935371 6.65079826 3 3 C2.01 2.67 1.02 2.34 0 2 C0 1.34 0 0.68 0 0 Z " fill="#E4E4E4" transform="translate(298,114)"/>
<path d="M0 0 C1.45903258 0.30921884 2.91720722 0.62248799 4.375 0.9375 C5.18710938 1.11152344 5.99921875 1.28554688 6.8359375 1.46484375 C9 2 9 2 11 3 C11 3.66 11 4.32 11 5 C9.35 5 7.7 5 6 5 C5.01 7.97 4.02 10.94 3 14 C2.34 14 1.68 14 1 14 C2 6.57142857 2 6.57142857 3 3 C2.01 2.67 1.02 2.34 0 2 C0 1.34 0 0.68 0 0 Z " fill="#E4E4E4" transform="translate(207,373)"/>
<path d="M0 0 C0.55429687 0.28875 1.10859375 0.5775 1.6796875 0.875 C2.76636719 1.431875 2.76636719 1.431875 3.875 2 C4.59429687 2.37125 5.31359375 2.7425 6.0546875 3.125 C7.94848977 4.13673746 7.94848977 4.13673746 10 4 C10.495 3.34 10.99 2.68 11.5 2 C11.995 1.34 12.49 0.68 13 0 C13.66 0 14.32 0 15 0 C14.35455571 3.48539917 12.89865603 6.02819057 11 9 C6.69235185 7.43358249 2.93828536 5.31663844 -1 3 C-0.67 2.01 -0.34 1.02 0 0 Z " fill="#E7E7E7" transform="translate(358,322)"/>
<path d="M0 0 C2.31998359 0.39999717 3.86323424 0.90567879 5.8125 2.25 C7 4 7 4 6.6875 6.6875 C6.460625 7.450625 6.23375 8.21375 6 9 C5.01 9.33 4.02 9.66 3 10 C0.9375 7.8125 0.9375 7.8125 -1 5 C-0.75 2.1875 -0.75 2.1875 0 0 Z " fill="#ACACAC" transform="translate(161,343)"/>
<path d="M0 0 C0.33 0 0.66 0 1 0 C1 2.64 1 5.28 1 8 C2.98 8 4.96 8 7 8 C7 6.35 7 4.7 7 3 C7.66 3 8.32 3 9 3 C9.04241723 5.33294775 9.04092937 7.66702567 9 10 C8 11 8 11 4.5625 11.1875 C1 11 1 11 -1 9 C-1.32752234 6.28545044 -1.1308425 3.74769241 -1 1 C-0.67 0.67 -0.34 0.34 0 0 Z " fill="#EFEFEF" transform="translate(258,108)"/>
<path d="M0 0 C0 0.99 0 1.98 0 3 C-1.43146378 3.41713515 -2.87058886 3.8080497 -4.3125 4.1875 C-5.11300781 4.40792969 -5.91351563 4.62835938 -6.73828125 4.85546875 C-9 5 -9 5 -10.79296875 3.67578125 C-12 2 -12 2 -12 0 C-7.60113822 -2.76965372 -4.69539791 -1.56513264 0 0 Z " fill="#9B9B9B" transform="translate(139,182)"/>
<path d="M0 0 C0 2.31 0 4.62 0 7 C-1.65 7.33 -3.3 7.66 -5 8 C-5.33 5.36 -5.66 2.72 -6 0 C-3.50907189 -1.24546405 -2.58919267 -0.7767578 0 0 Z " fill="#181818" transform="translate(272,383)"/>
<path d="M0 0 C0.33 0 0.66 0 1 0 C1.33 1.98 1.66 3.96 2 6 C2.33 4.68 2.66 3.36 3 2 C3.66 2 4.32 2 5 2 C6.1171875 3.734375 6.1171875 3.734375 7 6 C6.3203125 8.140625 6.3203125 8.140625 5.125 10.25 C4.73570312 10.95640625 4.34640625 11.6628125 3.9453125 12.390625 C3.63335937 12.92171875 3.32140625 13.4528125 3 14 C0.19954377 10.85408067 -0.35261589 8.932936 -0.1875 4.75 C-0.16042969 3.85796875 -0.13335937 2.9659375 -0.10546875 2.046875 C-0.07066406 1.37140625 -0.03585938 0.6959375 0 0 Z " fill="#9C9C9C" transform="translate(198,114)"/>
<path d="M0 0 C3 1 3 1 4.1875 2.875 C5 5 5 5 5 8 C3.35 8.33 1.7 8.66 0 9 C-0.99 6.69 -1.98 4.38 -3 2 C-2.01 1.34 -1.02 0.68 0 0 Z " fill="#121212" transform="translate(306,371)"/>
<path d="M0 0 C2.475 0.99 2.475 0.99 5 2 C3.52307692 6.67692308 3.52307692 6.67692308 0.875 8.3125 C-0.053125 8.6528125 -0.053125 8.6528125 -1 9 C-2.1875 7.3125 -2.1875 7.3125 -3 5 C-1.625 2.25 -1.625 2.25 0 0 Z " fill="#0F0F0F" transform="translate(175,358)"/>
<path d="M0 0 C2.31 0.66 4.62 1.32 7 2 C6.67 3.98 6.34 5.96 6 8 C3.69 7.34 1.38 6.68 -1 6 C-0.67 4.02 -0.34 2.04 0 0 Z " fill="#121212" transform="translate(371,302)"/>
<path d="M0 0 C1.32 0 2.64 0 4 0 C4.125 5.75 4.125 5.75 3 8 C1.35 7.67 -0.3 7.34 -2 7 C-2.125 4.625 -2.125 4.625 -2 2 C-1.34 1.34 -0.68 0.68 0 0 Z " fill="#9B9B9B" transform="translate(113,220)"/>
<path d="M0 0 C1.65 0 3.3 0 5 0 C5 2.64 5 5.28 5 8 C3.35 8 1.7 8 0 8 C0 5.36 0 2.72 0 0 Z " fill="#050505" transform="translate(260,108)"/>
<path d="M0 0 C0.66 0.33 1.32 0.66 2 1 C0.68938409 5.23429756 -0.94356259 9.07407404 -3 13 C-3.99 13 -4.98 13 -6 13 C-5.71848913 11.68528432 -5.42446661 10.37324233 -5.125 9.0625 C-4.96257812 8.33160156 -4.80015625 7.60070312 -4.6328125 6.84765625 C-4 5 -4 5 -2 4 C-0.86649466 1.98330173 -0.86649466 1.98330173 0 0 Z " fill="#EDEDED" transform="translate(198,368)"/>
<path d="M0 0 C0.33 0.66 0.66 1.32 1 2 C1.66 2 2.32 2 3 2 C3 1.34 3 0.68 3 0 C3.99 0 4.98 0 6 0 C5.125 5.75 5.125 5.75 4 8 C2.35 7.67 0.7 7.34 -1 7 C-0.67 4.69 -0.34 2.38 0 0 Z " fill="#939393" transform="translate(373,284)"/>
<path d="M0 0 C2.94425817 -0.24535485 4.65769564 -0.17577792 7.3125 1.1875 C9 3 9 3 9.25 5.6875 C9.1675 6.450625 9.085 7.21375 9 8 C8.01 7.67 7.02 7.34 6 7 C6 6.01 6 5.02 6 4 C1.89776415 2.98459888 1.89776415 2.98459888 -2 4 C-1.34 2.68 -0.68 1.36 0 0 Z " fill="#E2E2E2" transform="translate(333,136)"/>
<path d="M0 0 C0.33 0.99 0.66 1.98 1 3 C3.47266765 2.65555119 3.47266765 2.65555119 6 2 C6.33 1.34 6.66 0.68 7 0 C7 0.66 7 1.32 7 2 C7.66 2 8.32 2 9 2 C8.67 2.99 8.34 3.98 8 5 C3.545 5.495 3.545 5.495 -1 6 C-1.33 4.68 -1.66 3.36 -2 2 C-1.34 2 -0.68 2 0 2 C0 1.34 0 0.68 0 0 Z " fill="#DFDFDF" transform="translate(266,388)"/>
<path d="M0 0 C3.73669693 0.41518855 6.73738338 1.11772118 10 3 C10 4.65 10 6.3 10 8 C9.01 8 8.02 8 7 8 C7 6.68 7 5.36 7 4 C6.236875 3.87625 5.47375 3.7525 4.6875 3.625 C2 3 2 3 -1 1 C-0.67 0.67 -0.34 0.34 0 0 Z " fill="#EBEBEB" transform="translate(371,300)"/>
<path d="M0 0 C2.125 0.375 2.125 0.375 4 1 C3.34 3.31 2.68 5.62 2 8 C0.35 7.67 -1.3 7.34 -3 7 C-2.25 2.25 -2.25 2.25 0 0 Z " fill="#979797" transform="translate(119,197)"/>
<path d="M0 0 C4.04648443 1.34882814 4.95502599 3.34826069 7 7 C6.67 7.99 6.34 8.98 6 10 C2.46413986 6.82679218 0.41421969 4.83256305 0 0 Z " fill="#E2E2E2" transform="translate(149,327)"/>
<path d="M0 0 C6.75 0.875 6.75 0.875 9 2 C9 3.32 9 4.64 9 6 C8.34 6 7.68 6 7 6 C7 5.34 7 4.68 7 4 C4.23735711 3.40267181 1.83967231 3 -1 3 C-0.67 2.01 -0.34 1.02 0 0 Z " fill="#D9D9D9" transform="translate(279,108)"/>
<path d="M0 0 C0.99 0 1.98 0 3 0 C3.66 2.64 4.32 5.28 5 8 C3.02 8 1.04 8 -1 8 C-0.34 7.34 0.32 6.68 1 6 C0.67 5.67 0.34 5.34 0 5 C-0.04063832 3.33382885 -0.042721 1.66611905 0 0 Z " fill="#757575" transform="translate(120,221)"/>
<path d="M0 0 C1.94268841 2.91403262 3.46395304 5.85808576 5 9 C1.74456771 8.65120368 0.98126893 7.97866739 -1.25 5.4375 C-2.11625 4.2309375 -2.11625 4.2309375 -3 3 C-2.01 2.01 -1.02 1.02 0 0 Z " fill="#EAEAEA" transform="translate(243,109)"/>
<path d="M0 0 C1.32 0.33 2.64 0.66 4 1 C3.67 3.97 3.34 6.94 3 10 C2.34 10 1.68 10 1 10 C0.67 6.7 0.34 3.4 0 0 Z " fill="#EDEDED" transform="translate(263,380)"/>
<path d="M0 0 C3.6875 0.3125 3.6875 0.3125 7 1 C7 1.99 7 2.98 7 4 C3.7 3.67 0.4 3.34 -3 3 C-2.01 2.01 -1.02 1.02 0 0 Z " fill="#D5D5D5" transform="translate(227,389)"/>
<path d="M0 0 C0.99 0 1.98 0 3 0 C3 3.3 3 6.6 3 10 C0 7 0 7 -0.1875 3.3125 C-0.125625 2.219375 -0.06375 1.12625 0 0 Z " fill="#D6D6D6" transform="translate(387,263)"/>
<path d="M0 0 C0.66 0.33 1.32 0.66 2 1 C2 1.66 2 2.32 2 3 C2.66 3.33 3.32 3.66 4 4 C4.33 4.66 4.66 5.32 5 6 C3.68 6.33 2.36 6.66 1 7 C-1 4 -1 4 -0.625 1.8125 C-0.41875 1.214375 -0.2125 0.61625 0 0 Z " fill="#DFDFDF" transform="translate(304,377)"/>
<path d="M0 0 C1 3 1 3 -0.4375 6.1875 C-1.2109375 7.5796875 -1.2109375 7.5796875 -2 9 C-2.66 9 -3.32 9 -4 9 C-3.38461538 3.46153846 -3.38461538 3.46153846 -1.4375 1.125 C-0.963125 0.75375 -0.48875 0.3825 0 0 Z " fill="#EEEEEE" transform="translate(302,119)"/>
<path d="M0 0 C2.0625 0.4375 2.0625 0.4375 4 1 C4 3.64 4 6.28 4 9 C3.34 8.67 2.68 8.34 2 8 C2 6.02 2 4.04 2 2 C1.01 1.67 0.02 1.34 -1 1 C-0.67 0.67 -0.34 0.34 0 0 Z " fill="#FAFAFA" transform="translate(121,218)"/>
<path d="M0 0 C2.64 0.33 5.28 0.66 8 1 C7.67 1.99 7.34 2.98 7 4 C4.69 3.67 2.38 3.34 0 3 C0 2.01 0 1.02 0 0 Z " fill="#151515" transform="translate(228,381)"/>
<path d="M0 0 C0.99 0.33 1.98 0.66 3 1 C2.34 1.66 1.68 2.32 1 3 C0.60235737 4.98821313 0.26224651 6.98944339 0 9 C-0.99 8.34 -1.98 7.68 -3 7 C-1.125 1.125 -1.125 1.125 0 0 Z " fill="#CCCCCC" transform="translate(370,299)"/>
<path d="M0 0 C2.875 -0.125 2.875 -0.125 6 0 C6.66 0.66 7.32 1.32 8 2 C6.02 2 4.04 2 2 2 C1.67 2.66 1.34 3.32 1 4 C0.01 4.495 0.01 4.495 -1 5 C-0.67 3.35 -0.34 1.7 0 0 Z " fill="#F6F6F6" transform="translate(125,180)"/>
<path d="M0 0 C1.2077558 3.62326739 0.54311128 4.64146369 -1 8 C-1.66 8 -2.32 8 -3 8 C-2.74438677 5.6568787 -2.40729228 3.32156597 -2 1 C-1.34 0.67 -0.68 0.34 0 0 Z " fill="#F0F0F0" transform="translate(211,379)"/>
<path d="M0 0 C1.32 0.66 2.64 1.32 4 2 C3.01 2.33 2.02 2.66 1 3 C1 5.64 1 8.28 1 11 C0.67 11 0.34 11 0 11 C-1 4.375 -1 4.375 -1 1 C-0.67 0.67 -0.34 0.34 0 0 Z " fill="#C1C1C1" transform="translate(259,105)"/>
<path d="M0 0 C0.33 0.99 0.66 1.98 1 3 C1.66 3 2.32 3 3 3 C3 4.65 3 6.3 3 8 C2.01 8 1.02 8 0 8 C0 5.36 0 2.72 0 0 Z " fill="#1F1F1F" transform="translate(379,262)"/>
<path d="M0 0 C0.99 0 1.98 0 3 0 C3 0.66 3 1.32 3 2 C3.66 2 4.32 2 5 2 C5 2.99 5 3.98 5 5 C3.68 4.67 2.36 4.34 1 4 C0.67 2.68 0.34 1.36 0 0 Z " fill="#E0E0E0" transform="translate(276,117)"/>
<path d="M0 0 C1.98 0.66 3.96 1.32 6 2 C6 2.99 6 3.98 6 5 C4.35 4.67 2.7 4.34 1 4 C0.67 2.68 0.34 1.36 0 0 Z " fill="#D2D2D2" transform="translate(380,289)"/>
<path d="M0 0 C2.97 0.495 2.97 0.495 6 1 C6 1.99 6 2.98 6 4 C3.03 3.505 3.03 3.505 0 3 C0 2.01 0 1.02 0 0 Z " fill="#272727" transform="translate(280,111)"/>
</svg>
