<?xml version="1.0" encoding="UTF-8"?>
<svg version="1.1" xmlns="http://www.w3.org/2000/svg" width="500" height="500">
<path d="M0 0 C165 0 330 0 500 0 C500 165 500 330 500 500 C335 500 170 500 0 500 C0 335 0 170 0 0 Z " fill="#FEFAF7" transform="translate(0,0)"/>
<path d="M0 0 C1.32 0.33 2.64 0.66 4 1 C3.27463631 5.86024025 1.4765097 10.18669559 -0.33203125 14.72265625 C-0.67618576 15.59632339 -1.02034027 16.46999054 -1.37492371 17.37013245 C-2.12410637 19.27122414 -2.87510052 21.17160273 -3.62768555 23.0713501 C-5.66292885 28.20946922 -7.68494408 33.35278572 -9.70703125 38.49609375 C-10.13275421 39.57826172 -10.55847717 40.66042969 -10.99710083 41.77539062 C-16.52519043 55.84964611 -21.92714564 69.97272486 -27.32730103 84.09646606 C-28.57082665 87.34875711 -29.81657947 90.60018835 -31.0625 93.8515625 C-31.43255661 94.82243301 -31.80261322 95.79330353 -32.18388367 96.79359436 C-32.52667862 97.68751389 -32.86947357 98.58143341 -33.22265625 99.50244141 C-33.51922119 100.27858795 -33.81578613 101.0547345 -34.12133789 101.85440063 C-34.98453855 103.96224479 -35.95406491 105.97746863 -37 108 C-37.99 108 -38.98 108 -40 108 C-40.47381797 102.33739405 -38.82018937 98.2117037 -36.73046875 93.07421875 C-36.38221039 92.19389984 -36.03395203 91.31358093 -35.67514038 90.40658569 C-34.52177451 87.49648137 -33.35453737 84.59214541 -32.1875 81.6875 C-31.37960963 79.65533063 -30.57290677 77.62268881 -29.76733398 75.58959961 C-28.50135401 72.39456058 -27.23473578 69.19979519 -25.96455383 66.00642395 C-21.08171514 53.72361262 -16.32352541 41.39291204 -11.5625 29.0625 C-9.98203272 24.96944519 -8.39986396 20.87705498 -6.81640625 16.78515625 C-6.4733847 15.89541107 -6.13036316 15.00566589 -5.77694702 14.08895874 C-3.94221778 9.34916997 -2.03421803 4.65779631 0 0 Z " fill="#4C3D36" transform="translate(268,196)"/>
<path d="M0 0 C5.4005499 0.37751417 8.73744368 3.51450011 12.8125 6.75 C13.55226074 7.32621094 14.29202148 7.90242187 15.05419922 8.49609375 C20.954668 13.1133076 26.78159876 17.82507969 32.55786133 22.59667969 C33.17040771 23.10102539 33.7829541 23.60537109 34.4140625 24.125 C35.00219727 24.6096875 35.59033203 25.094375 36.19628906 25.59375 C38.05841558 27.04554328 39.98939929 28.32712838 41.9609375 29.625 C42.96382813 30.40875 43.96671875 31.1925 45 32 C45 33.32 45 34.64 45 36 C43.17697204 37.69698387 41.45700408 39.07337785 39.4375 40.5 C38.23702849 41.38371739 37.03786058 42.26920775 35.83984375 43.15625 C34.89407471 43.85041016 34.89407471 43.85041016 33.92919922 44.55859375 C30.71981124 46.95649639 27.61531407 49.48191601 24.5 52 C23.24398176 53.00452196 21.9874722 54.0084299 20.73046875 55.01171875 C18.24182653 56.99990276 15.76828461 59.00520258 13.30078125 61.01953125 C12.13851048 61.95113205 10.97577145 62.88214903 9.8125 63.8125 C8.78769531 64.64394531 7.76289063 65.47539062 6.70703125 66.33203125 C4 68 4 68 1.63671875 67.76171875 C1.09660156 67.51035156 0.55648438 67.25898438 0 67 C1.33768761 63.90943762 2.64552336 62.21166407 5.3515625 60.22265625 C6.0307373 59.71516846 6.70991211 59.20768066 7.40966797 58.68481445 C8.14072754 58.14945068 8.87178711 57.61408691 9.625 57.0625 C11.16308969 55.91363915 12.69950468 54.76253337 14.234375 53.609375 C15.41483398 52.72282227 15.41483398 52.72282227 16.61914062 51.81835938 C21.13713182 48.3677853 25.51951526 44.75089711 29.90869141 41.13891602 C30.53437012 40.62514404 31.16004883 40.11137207 31.8046875 39.58203125 C32.35108887 39.13061768 32.89749023 38.6792041 33.46044922 38.21411133 C34.91628182 37.06602133 36.45732418 36.02845055 38 35 C36.67287174 31.01861522 34.73745389 30.0536611 31.375 27.5625 C30.18900621 26.67333761 29.00415666 25.78264744 27.8203125 24.890625 C26.88493652 24.18776367 26.88493652 24.18776367 25.93066406 23.47070312 C22.00661228 20.48151649 18.17957075 17.36968013 14.34106445 14.27197266 C10.11946224 10.87186842 5.83345988 7.5811229 1.44140625 4.40234375 C0.96574219 3.93957031 0.49007813 3.47679687 0 3 C0 2.01 0 1.02 0 0 Z " fill="#4A3B34" transform="translate(275,216)"/>
<path d="M0 0 C-0.22828515 3.28730621 -1.13557577 4.1222998 -3.6328125 6.375 C-4.78944808 7.25979412 -5.95411035 8.13415709 -7.125 9 C-8.4017419 9.97173692 -9.67775855 10.94442731 -10.953125 11.91796875 C-11.61763672 12.42118652 -12.28214844 12.9244043 -12.96679688 13.44287109 C-16.31615864 16.00798028 -19.59193051 18.66345696 -22.875 21.3125 C-27.84748135 25.30679875 -32.85909515 29.22300868 -38 33 C-36.67287174 36.98138478 -34.73745389 37.9463389 -31.375 40.4375 C-30.18900621 41.32666239 -29.00415666 42.21735256 -27.8203125 43.109375 C-26.88493652 43.81223633 -26.88493652 43.81223633 -25.93066406 44.52929688 C-22.00661228 47.51848351 -18.17957075 50.63031987 -14.34106445 53.72802734 C-10.11946224 57.12813158 -5.83345988 60.4188771 -1.44140625 63.59765625 C-0.96574219 64.06042969 -0.49007812 64.52320313 0 65 C0 65.99 0 66.98 0 68 C-5.4005499 67.62248583 -8.73744368 64.48549989 -12.8125 61.25 C-13.92214111 60.38568359 -13.92214111 60.38568359 -15.05419922 59.50390625 C-20.954668 54.8866924 -26.78159876 50.17492031 -32.55786133 45.40332031 C-33.17040771 44.89897461 -33.7829541 44.39462891 -34.4140625 43.875 C-35.00219727 43.3903125 -35.59033203 42.905625 -36.19628906 42.40625 C-38.05841558 40.95445672 -39.98939929 39.67287162 -41.9609375 38.375 C-42.96382812 37.59125 -43.96671875 36.8075 -45 36 C-45 32 -45 32 -43.69335938 30.55883789 C-42.77780273 29.89742798 -42.77780273 29.89742798 -41.84375 29.22265625 C-41.15853271 28.71549072 -40.47331543 28.2083252 -39.76733398 27.68579102 C-39.01911377 27.15010498 -38.27089355 26.61441895 -37.5 26.0625 C-35.93711593 24.90853017 -34.37596033 23.75221625 -32.81640625 22.59375 C-32.01605957 22.00207031 -31.21571289 21.41039062 -30.39111328 20.80078125 C-25.99967734 17.4935287 -21.77181418 13.98753189 -17.53125 10.49047852 C-15.69596629 8.98282011 -13.85084624 7.48850359 -12 6 C-11.30664551 5.43522949 -10.61329102 4.87045898 -9.89892578 4.28857422 C-9.20138184 3.73830566 -8.50383789 3.18803711 -7.78515625 2.62109375 C-7.15617432 2.11892334 -6.52719238 1.61675293 -5.87915039 1.09936523 C-4 0 -4 0 0 0 Z " fill="#4A3B34" transform="translate(225,216)"/>
<path d="M0 0 C0.886875 0.09796875 1.77375 0.1959375 2.6875 0.296875 C3.574375 0.38453125 4.46125 0.4721875 5.375 0.5625 C7.6875 1.046875 7.6875 1.046875 9.6875 3.046875 C9.6640625 5.2109375 9.6640625 5.2109375 9.3125 7.671875 C9.14621094 8.89777344 9.14621094 8.89777344 8.9765625 10.1484375 C8.83347656 11.08816406 8.83347656 11.08816406 8.6875 12.046875 C6.5412974 11.90658081 4.39553782 11.75949336 2.25 11.609375 C1.05503906 11.52816406 -0.13992187 11.44695312 -1.37109375 11.36328125 C-4.3125 11.046875 -4.3125 11.046875 -5.3125 10.046875 C-4.52240439 0.09167036 -4.52240439 0.09167036 0 0 Z " fill="#857974" transform="translate(116.3125,216.953125)"/>
<path d="M0 0 C3.5 0.25 3.5 0.25 5.5 2.25 C5.765625 4.5625 5.765625 4.5625 5.75 7.25 C5.75515625 8.136875 5.7603125 9.02375 5.765625 9.9375 C5.5 12.25 5.5 12.25 3.5 14.25 C0 14.5 0 14.5 -3.5 14.25 C-5.5 12.25 -5.5 12.25 -5.765625 9.9375 C-5.76046875 9.050625 -5.7553125 8.16375 -5.75 7.25 C-5.75515625 6.363125 -5.7603125 5.47625 -5.765625 4.5625 C-5.30264583 0.53185785 -3.88850494 0.27775035 0 0 Z " fill="#53453E" transform="translate(262.5,104.75)"/>
<path d="M0 0 C3.3 0 6.6 0 10 0 C11.59138085 4.17737474 12.21278058 7.53160785 12 12 C5.375 14 5.375 14 2 14 C1.65980848 12.60582227 1.32818221 11.20955342 1 9.8125 C0.814375 9.03519531 0.62875 8.25789063 0.4375 7.45703125 C0 5 0 5 0 0 Z " fill="#F5F1EE" transform="translate(263,380)"/>
<path d="M0 0 C2.54101305 1.08389289 3.06942599 2.17562554 4.25390625 4.640625 C4.60066406 5.32769531 4.94742187 6.01476562 5.3046875 6.72265625 C6.06354132 9.23199496 5.96695485 10.42671664 4.94140625 12.828125 C-0.09430804 15.828125 -0.09430804 15.828125 -3.05859375 15.828125 C-3.89650164 14.03859315 -4.72878771 12.24642805 -5.55859375 10.453125 C-6.2546875 8.95652344 -6.2546875 8.95652344 -6.96484375 7.4296875 C-8.05859375 4.828125 -8.05859375 4.828125 -8.05859375 2.828125 C-2.68634837 -0.22428715 -2.68634837 -0.22428715 0 0 Z " fill="#B1A8A4" transform="translate(308.05859375,368.171875)"/>
<path d="M0 0 C3.35595828 0.59927826 5.37801226 1.84622436 8 4 C7.55530671 9.03985731 5.28656638 11.37634988 2 15 C-0.67857172 14.63803085 -2.60980914 14.26012724 -4.875 12.75 C-6 11 -6 11 -6 8.6875 C-4.6452245 5.04654085 -2.60632998 2.87364587 0 0 Z " fill="#B3AAA5" transform="translate(175,355)"/>
<path d="M0 0 C4.33311515 0.41664569 8.03536259 1.19789209 12 3 C12.25 8.625 12.25 8.625 10 12 C1.42857143 11.14285714 1.42857143 11.14285714 -2 9 C-1.125 1.125 -1.125 1.125 0 0 Z " fill="#B4ABA7" transform="translate(369,300)"/>
<path d="M0 0 C1.65 0.33 3.3 0.66 5 1 C5.33 1.99 5.66 2.98 6 4 C7.98 3.67 9.96 3.34 12 3 C12 3.99 12 4.98 12 6 C10.02 6.33 8.04 6.66 6 7 C5.67 7.99 5.34 8.98 5 10 C6.32 10.33 7.64 10.66 9 11 C9 11.66 9 12.32 9 13 C4.428721 12.45144652 0.32564205 11.58255197 -4 10 C-3.5205537 5.78087253 -2.83374881 3.20336822 0 0 Z " fill="#50413B" transform="translate(119,197)"/>
<path d="M0 0 C1.58294782 -0.05437607 3.16644256 -0.09296271 4.75 -0.125 C5.63171875 -0.14820313 6.5134375 -0.17140625 7.421875 -0.1953125 C10.1135858 0.00860498 11.69904974 0.63448279 14 2 C14 2.99 14 3.98 14 5 C12.68 5.33 11.36 5.66 10 6 C10 7.98 10 9.96 10 12 C5.44467216 11.73203954 3.11441418 9.82300375 0.09375 6.6328125 C-1 5 -1 5 -0.875 2.125 C-0.58625 1.42375 -0.2975 0.7225 0 0 Z " fill="#51423C" transform="translate(125,180)"/>
<path d="M0 0 C3.91392131 1.45634281 5.88118591 4.28744806 7.6875 8 C7.6875 9.32 7.6875 10.64 7.6875 12 C5.0475 11.67 2.4075 11.34 -0.3125 11 C-0.6425 12.32 -0.9725 13.64 -1.3125 15 C-4.11295623 11.85408067 -4.66511589 9.932936 -4.5 5.75 C-4.47292969 4.85796875 -4.44585937 3.9659375 -4.41796875 3.046875 C-4.38316406 2.37140625 -4.34835938 1.6959375 -4.3125 1 C-2.3125 0 -2.3125 0 0 0 Z " fill="#50413A" transform="translate(202.3125,113)"/>
<path d="M0 0 C6.75 0.875 6.75 0.875 9 2 C9 3.32 9 4.64 9 6 C8.34 6 7.68 6 7 6 C7 5.34 7 4.68 7 4 C4.03 3.505 4.03 3.505 1 3 C1 3.99 1 4.98 1 6 C3.97 6.495 3.97 6.495 7 7 C7.6875 9.3125 7.6875 9.3125 8 12 C6.5625 13.8125 6.5625 13.8125 5 15 C2.69 14.34 0.38 13.68 -2 13 C-2.33 11.68 -2.66 10.36 -3 9 C-2.01 9 -1.02 9 0 9 C0 9.66 0 10.32 0 11 C1.65 11.33 3.3 11.66 5 12 C5 11.01 5 10.02 5 9 C3.5459375 8.62875 3.5459375 8.62875 2.0625 8.25 C-1 7 -1 7 -2 5.0625 C-2 3 -2 3 0 0 Z " fill="#4F403A" transform="translate(279,108)"/>
<path d="M0 0 C2.01151705 0.22710676 4.02344239 0.46071099 6.0234375 0.7734375 C8.23674688 1.02713699 9.91417653 0.7821838 12 0 C10.71034824 1.37562854 9.37310707 2.70766393 8 4 C7.34 4 6.68 4 6 4 C6 5.32 6 6.64 6 8 C7.98 8 9.96 8 12 8 C12 8.66 12 9.32 12 10 C7.38 10 2.76 10 -2 10 C-2.1953125 3.9453125 -2.1953125 3.9453125 -2 2 C-1.34 1.34 -0.68 0.68 0 0 Z " fill="#665852" transform="translate(378,243)"/>
<path d="M0 0 C4.7707929 0.43370845 8.63364259 2.64334391 12 6 C12 6.99 12 7.98 12 9 C11.484375 8.835 10.96875 8.67 10.4375 8.5 C7.26636124 7.84951 4.22781666 7.9379266 1 8 C2.485 9.1446875 2.485 9.1446875 4 10.3125 C5.6875 11.61328125 5.6875 11.61328125 7 13 C7 13.99 7 14.98 7 16 C4.2347607 14.78329471 1.74946103 13.24570702 -0.75 11.5625 C-1.36359375 11.15128906 -1.9771875 10.74007812 -2.609375 10.31640625 C-3.06828125 9.88199219 -3.5271875 9.44757813 -4 9 C-4 8.01 -4 7.02 -4 6 C-0.535 5.505 -0.535 5.505 3 5 C3 4.34 3 3.68 3 3 C2.01 2.67 1.02 2.34 0 2 C0 1.34 0 0.68 0 0 Z " fill="#53443D" transform="translate(137,160)"/>
<path d="M0 0 C2.84383123 1.2748209 5.13754018 2.45137078 7 5 C6.72963853 7.97397616 6.14553974 8.85446026 4 11 C2.68 11 1.36 11 0 11 C-0.33 12.65 -0.66 14.3 -1 16 C-1.77321882 13.01758453 -2.41196203 10.02419525 -3 7 C-5.475 8.485 -5.475 8.485 -8 10 C-6.34908222 5.70761377 -3.26245434 3.1206085 0 0 Z " fill="#5B4D47" transform="translate(161,342)"/>
<path d="M0 0 C4.70588235 0.70588235 4.70588235 0.70588235 6 2 C5.82364548 4.69082872 5.38164079 7.32851446 5 10 C7.97 10.495 7.97 10.495 11 11 C11 11.66 11 12.32 11 13 C9.22868439 12.69024532 7.45796222 12.37709575 5.6875 12.0625 C4.70136719 11.88847656 3.71523438 11.71445312 2.69921875 11.53515625 C0 11 0 11 -3 10 C-2.69201674 8.51988629 -2.378482 7.04092675 -2.0625 5.5625 C-1.88847656 4.73878906 -1.71445312 3.91507812 -1.53515625 3.06640625 C-1 1 -1 1 0 0 Z " fill="#6E615B" transform="translate(375,281)"/>
<path d="M0 0 C0.99 0 1.98 0 3 0 C2.608125 1.19625 2.21625 2.3925 1.8125 3.625 C0.90056809 7.15952231 0.95805694 7.89323585 2.375 11.5 C2.91125 12.325 3.4475 13.15 4 14 C0.20411134 13.45773019 -1.47211993 11.79872437 -4 9 C-4 10.65 -4 12.3 -4 14 C-4.99 14 -5.98 14 -7 14 C-7 9.71 -7 5.42 -7 1 C-6.01 1 -5.02 1 -4 1 C-4 2.65 -4 4.3 -4 6 C-3.34 6 -2.68 6 -2 6 C-1.34 4.02 -0.68 2.04 0 0 Z " fill="#52433C" transform="translate(244,104)"/>
<path d="M0 0 C0.66 0 1.32 0 2 0 C2.556875 1.670625 2.556875 1.670625 3.125 3.375 C4.4794021 6.61378762 4.76212803 6.89272441 8.1875 8.4375 C9.5796875 8.7159375 9.5796875 8.7159375 11 9 C10.67 9.66 10.34 10.32 10 11 C7.36 10.67 4.72 10.34 2 10 C2.495 10.61875 2.99 11.2375 3.5 11.875 C5 14 5 14 5 16 C1.37386801 15.43040847 -0.25517741 14.07625466 -2.75 11.4375 C-3.36359375 10.79683594 -3.9771875 10.15617188 -4.609375 9.49609375 C-5.06828125 9.00238281 -5.5271875 8.50867188 -6 8 C-5.67 7.34 -5.34 6.68 -5 6 C-2.525 6.99 -2.525 6.99 0 8 C0 5.36 0 2.72 0 0 Z " fill="#50413B" transform="translate(151,144)"/>
<path d="M0 0 C3.7758544 0.52442422 6.22372155 1.32654667 9 4 C9 4.99 9 5.98 9 7 C7.68 6.67 6.36 6.34 5 6 C4.01 7.98 3.02 9.96 2 12 C2.99 13.485 2.99 13.485 4 15 C3.01 15.33 2.02 15.66 1 16 C-0.82421875 15.00390625 -0.82421875 15.00390625 -2.6875 13.5625 C-3.31011719 13.08941406 -3.93273437 12.61632812 -4.57421875 12.12890625 C-5.04472656 11.75636719 -5.51523437 11.38382813 -6 11 C-5.67 10.34 -5.34 9.68 -5 9 C-3.68 9 -2.36 9 -1 9 C1.36692966 6.15173402 1.36692966 6.15173402 0.625 2.8125 C0.41875 1.884375 0.2125 0.95625 0 0 Z " fill="#53443D" transform="translate(317,123)"/>
<path d="M0 0 C2.9896432 0.59792864 4.41749331 1.26323356 6.5 3.5 C6.75 6.1875 6.75 6.1875 6.5 8.5 C5.51 8.17 4.52 7.84 3.5 7.5 C3.5 6.51 3.5 5.52 3.5 4.5 C2.18 4.17 0.86 3.84 -0.5 3.5 C-2.12831762 5.30961577 -2.12831762 5.30961577 -3.5 7.5 C-2.83131686 10.61332248 -2.83131686 10.61332248 -0.4375 11.6875 C0.201875 11.955625 0.84125 12.22375 1.5 12.5 C1.17 13.16 0.84 13.82 0.5 14.5 C-2.17857172 14.13803085 -4.10980914 13.76012724 -6.375 12.25 C-7.5 10.5 -7.5 10.5 -7.4375 8.125 C-5.99518737 4.08652464 -4.42343906 0.88468781 0 0 Z " fill="#4D3E37" transform="translate(335.5,135.5)"/>
<path d="M0 0 C-0.2475 0.7425 -0.495 1.485 -0.75 2.25 C-0.8325 3.1575 -0.915 4.065 -1 5 C0.83358335 7.33454661 0.83358335 7.33454661 3 9 C3.99 8.67 4.98 8.34 6 8 C5.66354211 11.14027363 4.94763914 12.05098295 2.625 14.3125 C1.325625 15.1478125 1.325625 15.1478125 0 16 C-0.99 15.67 -1.98 15.34 -3 15 C-2.34 13.68 -1.68 12.36 -1 11 C-2.15684329 8.9004467 -2.15684329 8.9004467 -4 7 C-6.62625139 6.66574265 -6.62625139 6.66574265 -9 7 C-7.16766277 2.5718517 -4.96404317 0 0 0 Z " fill="#52433D" transform="translate(170,131)"/>
<path d="M0 0 C-0.33 0.99 -0.66 1.98 -1 3 C-2.98 3.33 -4.96 3.66 -7 4 C-6.505 4.78375 -6.01 5.5675 -5.5 6.375 C-4 9 -4 9 -4 11 C-2.35 10.67 -0.7 10.34 1 10 C1.33 9.01 1.66 8.02 2 7 C2.66 7 3.32 7 4 7 C3.6875 9.375 3.6875 9.375 3 12 C0 14 0 14 -2.375 14.625 C-6.22435652 13.70848654 -7.22633626 11.36961638 -9.27734375 8.140625 C-10 6 -10 6 -9.31640625 3.859375 C-6.67692895 0.13121121 -4.29300293 -0.23205421 0 0 Z " fill="#53443E" transform="translate(188,121)"/>
<path d="M0 0 C0.66 0 1.32 0 2 0 C2 2.97 2 5.94 2 9 C3.32 9 4.64 9 6 9 C6 6.69 6 4.38 6 2 C6.66 2 7.32 2 8 2 C8 4.31 8 6.62 8 9 C9.32 9 10.64 9 12 9 C12 6.36 12 3.72 12 1 C12.66 1 13.32 1 14 1 C14 4.3 14 7.6 14 11 C12.22925083 11.02705729 10.45838289 11.04642195 8.6875 11.0625 C7.70136719 11.07410156 6.71523438 11.08570313 5.69921875 11.09765625 C3 11 3 11 0 10 C0 6.7 0 3.4 0 0 Z " fill="#665953" transform="translate(376,262)"/>
<path d="M0 0 C3.3 0.33 6.6 0.66 10 1 C10 1.66 10 2.32 10 3 C7.03 2.67 4.06 2.34 1 2 C1 3.32 1 4.64 1 6 C3.31 6.33 5.62 6.66 8 7 C8 7.66 8 8.32 8 9 C5.69 8.67 3.38 8.34 1 8 C0.67 9.32 0.34 10.64 0 12 C2.64 12.33 5.28 12.66 8 13 C8 13.66 8 14.32 8 15 C4.7 14.67 1.4 14.34 -2 14 C-1.34 9.38 -0.68 4.76 0 0 Z " fill="#6F625C" transform="translate(226,378)"/>
<path d="M0 0 C5.625 1.125 5.625 1.125 8 4 C8.33 2.68 8.66 1.36 9 0 C9.66 0 10.32 0 11 0 C11 4.62 11 9.24 11 14 C10.34 14 9.68 14 9 14 C8.938125 12.9275 8.87625 11.855 8.8125 10.75 C8.33854041 6.86468039 8.33854041 6.86468039 5.4375 4.5625 C4.633125 4.046875 3.82875 3.53125 3 3 C2.67 6.3 2.34 9.6 2 13 C1.34 13 0.68 13 0 13 C0 8.71 0 4.42 0 0 Z " fill="#6D6059" transform="translate(244,381)"/>
<path d="M0 0 C3.3 0 6.6 0 10 0 C11.59138085 4.17737474 12.21278058 7.53160785 12 12 C5.375 14 5.375 14 2 14 C1.65980848 12.60582227 1.32818221 11.20955342 1 9.8125 C0.814375 9.03519531 0.62875 8.25789063 0.4375 7.45703125 C0 5 0 5 0 0 Z M2 2 C2.33 5.3 2.66 8.6 3 12 C6.465 11.505 6.465 11.505 10 11 C10 8.03 10 5.06 10 2 C6.71303767 1.20046862 5.28976808 0.90341064 2 2 Z " fill="#5D4F49" transform="translate(263,380)"/>
<path d="M0 0 C0.99 0.33 1.98 0.66 3 1 C1.02 2.32 -0.96 3.64 -3 5 C-2.01 6.485 -2.01 6.485 -1 8 C0.98 7.01 2.96 6.02 5 5 C4 8 4 8 1 10 C1 11.32 1 12.64 1 14 C1.94875 13.34 2.8975 12.68 3.875 12 C7 10 7 10 9 10 C9 10.66 9 11.32 9 12 C7.03852126 13.38938077 5.03833424 14.7260411 3 16 C-0.4087928 14.6015209 -1.87393835 13.14993067 -3.75 10 C-4.17796875 9.29875 -4.6059375 8.5975 -5.046875 7.875 C-6 6 -6 6 -6 4 C-3.1875 1.8125 -3.1875 1.8125 0 0 Z " fill="#645650" transform="translate(323,358)"/>
<path d="M0 0 C3.71888239 0.50712033 6.73454239 1.11608215 10 3 C10 3.99 10 4.98 10 6 C8.35 5.67 6.7 5.34 5 5 C4.87625 5.7425 4.7525 6.485 4.625 7.25 C4.04513299 9.80141485 3.26291261 11.7267573 2 14 C1.34 14 0.68 14 0 14 C0.55105909 10.0507432 1.38935371 6.65079826 3 3 C2.01 2.67 1.02 2.34 0 2 C0 1.34 0 0.68 0 0 Z " fill="#52433D" transform="translate(298,114)"/>
<path d="M0 0 C0.66 0.33 1.32 0.66 2 1 C-0.475 4.465 -0.475 4.465 -3 8 C0.34373475 7.44271087 3.03312999 6.64826111 6 5 C5.505 5.598125 5.01 6.19625 4.5 6.8125 C2.71723582 8.97029994 2.71723582 8.97029994 3 12 C4.94074861 11.72382467 4.94074861 11.72382467 7 11 C7.66 10.01 8.32 9.02 9 8 C9.66 8.33 10.32 8.66 11 9 C9.35 10.98 7.7 12.96 6 15 C2.60807637 14.40716379 0.7892243 13.23256811 -1.75 10.9375 C-2.36359375 10.38964844 -2.9771875 9.84179688 -3.609375 9.27734375 C-4.06828125 8.85582031 -4.5271875 8.43429687 -5 8 C-3.58208437 5.06553114 -2.01667393 2.56667591 0 0 Z " fill="#5F514A" transform="translate(351,332)"/>
<path d="M0 0 C3.625 0.375 3.625 0.375 7 1 C6.67 2.98 6.34 4.96 6 7 C5.01 7.33 4.02 7.66 3 8 C3 6.35 3 4.7 3 3 C2.01 3.495 2.01 3.495 1 4 C0.34786708 6.02463255 0.34786708 6.02463255 0 8 C0.66 8 1.32 8 2 8 C2 8.66 2 9.32 2 10 C0.35 10 -1.3 10 -3 10 C-2.25 2.25 -2.25 2.25 0 0 Z " fill="#52433C" transform="translate(114,217)"/>
<path d="M0 0 C0 0.99 0 1.98 0 3 C-1.43146378 3.41713515 -2.87058886 3.8080497 -4.3125 4.1875 C-5.11300781 4.40792969 -5.91351563 4.62835938 -6.73828125 4.85546875 C-9 5 -9 5 -10.79296875 3.67578125 C-12 2 -12 2 -12 0 C-7.60113822 -2.76965372 -4.69539791 -1.56513264 0 0 Z " fill="#8A7E79" transform="translate(139,182)"/>
<path d="M0 0 C0.33 0 0.66 0 1 0 C1.33 1.98 1.66 3.96 2 6 C2.33 4.68 2.66 3.36 3 2 C3.99 2.33 4.98 2.66 6 3 C7 6 7 6 6.22265625 8.04296875 C5.83980469 8.75066406 5.45695313 9.45835938 5.0625 10.1875 C4.68222656 10.90292969 4.30195313 11.61835937 3.91015625 12.35546875 C3.45962891 13.16951172 3.45962891 13.16951172 3 14 C0.19954377 10.85408067 -0.35261589 8.932936 -0.1875 4.75 C-0.16042969 3.85796875 -0.13335937 2.9659375 -0.10546875 2.046875 C-0.07066406 1.37140625 -0.03585938 0.6959375 0 0 Z " fill="#8A7F79" transform="translate(198,114)"/>
<path d="M0 0 C3.69638666 2.62637999 5.8818514 4.52740559 7 9 C6.625 11.3125 6.625 11.3125 6 13 C4.4375 13.75 4.4375 13.75 2 14 C-4.32583504 11.05521472 -4.32583504 11.05521472 -6.4375 7.75 C-6.623125 7.1725 -6.80875 6.595 -7 6 C-4.7897045 7.02620862 -2.92682503 8.05716794 -1 9.5625 C1.0675742 11.04856895 2.54822409 11.46367402 5 12 C2.79033067 5.87377531 2.79033067 5.87377531 0 0 Z " fill="#5F514B" transform="translate(339,346)"/>
<path d="M0 0 C5.57142857 5.14285714 5.57142857 5.14285714 6 9 C5.236875 8.175 4.47375 7.35 3.6875 6.5 C1.24565858 3.65944803 1.24565858 3.65944803 -2 4 C-0.60240095 7.54518884 -0.60240095 7.54518884 1 11 C-2.875 9.25 -2.875 9.25 -4 7 C-5.98 7.66 -7.96 8.32 -10 9 C-10 8.34 -10 7.68 -10 7 C-7.8125 5.2734375 -7.8125 5.2734375 -5 3.375 C-4.071875 2.74335938 -3.14375 2.11171875 -2.1875 1.4609375 C-1.1046875 0.73777344 -1.1046875 0.73777344 0 0 Z " fill="#5F514B" transform="translate(150,327)"/>
<path d="M0 0 C1.65 0 3.3 0 5 0 C5 2.64 5 5.28 5 8 C3.35 8 1.7 8 0 8 C0 5.36 0 2.72 0 0 Z " fill="#FBF6F3" transform="translate(260,108)"/>
<path d="M0 0 C2.94425817 -0.24535485 4.65769564 -0.17577792 7.3125 1.1875 C9 3 9 3 9.25 5.6875 C9.1675 6.450625 9.085 7.21375 9 8 C8.01 7.67 7.02 7.34 6 7 C6 6.01 6 5.02 6 4 C1.89776415 2.98459888 1.89776415 2.98459888 -2 4 C-1.34 2.68 -0.68 1.36 0 0 Z " fill="#554640" transform="translate(333,136)"/>
<path d="M0 0 C4.95 0.99 4.95 0.99 10 2 C10 2.66 10 3.32 10 4 C8.35 3.67 6.7 3.34 5 3 C3.515 8.445 3.515 8.445 2 14 C1.34 14 0.68 14 0 14 C0.99 10.04 1.98 6.08 3 2 C2.01 1.67 1.02 1.34 0 1 C0 0.67 0 0.34 0 0 Z " fill="#63554F" transform="translate(208,373)"/>
<path d="M0 0 C0.33 0.99 0.66 1.98 1 3 C-0.9375 6.1875 -0.9375 6.1875 -3 9 C-4.62974564 8.23925157 -6.25366648 7.46601567 -7.875 6.6875 C-8.77992188 6.25824219 -9.68484375 5.82898438 -10.6171875 5.38671875 C-13 4 -13 4 -15 1 C-12.55853792 1.94945748 -10.19182705 2.8984445 -7.875 4.125 C-5.89176146 5.21144273 -5.89176146 5.21144273 -3 5 C-1.28288757 2.55503957 -1.28288757 2.55503957 0 0 Z " fill="#63554F" transform="translate(372,322)"/>
<path d="M0 0 C2.125 0.375 2.125 0.375 4 1 C3.34 3.31 2.68 5.62 2 8 C0.35 7.67 -1.3 7.34 -3 7 C-2.25 2.25 -2.25 2.25 0 0 Z " fill="#8D827C" transform="translate(119,197)"/>
<path d="M0 0 C0.66 0 1.32 0 2 0 C2 3.3 2 6.6 2 10 C-1.63 10 -5.26 10 -9 10 C-9 9.67 -9 9.34 -9 9 C-4.545 8.505 -4.545 8.505 0 8 C0 5.36 0 2.72 0 0 Z " fill="#7B6F69" transform="translate(388,263)"/>
<path d="M0 0 C1.65 0.33 3.3 0.66 5 1 C4.67 2.98 4.34 4.96 4 7 C2.35 7 0.7 7 -1 7 C-0.67 4.69 -0.34 2.38 0 0 Z " fill="#EFE9E6" transform="translate(375,283)"/>
<path d="M0 0 C1.9375 0.75 1.9375 0.75 4 2 C4.75 4.125 4.75 4.125 5 6 C3.68 6 2.36 6 1 6 C-0.75 4 -0.75 4 -2 2 C-1.34 1.34 -0.68 0.68 0 0 Z " fill="#F9F5F1" transform="translate(161,344)"/>
<path d="M0 0 C6.75 0.875 6.75 0.875 9 2 C9 3.32 9 4.64 9 6 C8.34 6 7.68 6 7 6 C7 5.34 7 4.68 7 4 C4.23735711 3.40267181 1.83967231 3 -1 3 C-0.67 2.01 -0.34 1.02 0 0 Z " fill="#5B4D47" transform="translate(279,108)"/>
<path d="M0 0 C1.32 0.33 2.64 0.66 4 1 C3.67 3.64 3.34 6.28 3 9 C5.97 9.495 5.97 9.495 9 10 C9 10.66 9 11.32 9 12 C6.6568787 11.74438677 4.32156597 11.40729228 2 11 C1 9 1 9 1.5625 5.5 C1.706875 4.345 1.85125 3.19 2 2 C1.34 1.34 0.68 0.68 0 0 Z " fill="#63564F" transform="translate(377,282)"/>
<path d="M0 0 C1.32 0 2.64 0 4 0 C4 2.31 4 4.62 4 7 C2.68 7 1.36 7 0 7 C0 4.69 0 2.38 0 0 Z " fill="#FAF5F2" transform="translate(378,245)"/>
<path d="M0 0 C1.67542976 0.28604898 3.34385343 0.61781233 5 1 C4.67 2.98 4.34 4.96 4 7 C3.01 7.33 2.02 7.66 1 8 C1 6.02 1 4.04 1 2 C0.34 1.67 -0.32 1.34 -1 1 C-0.67 0.67 -0.34 0.34 0 0 Z " fill="#4C3D36" transform="translate(116,217)"/>
<path d="M0 0 C2.375 -0.125 2.375 -0.125 5 0 C7 2 7 2 7.125 4.625 C7.08375 5.40875 7.0425 6.1925 7 7 C6.34 6.67 5.68 6.34 5 6 C5 5.01 5 4.02 5 3 C2.03 2.505 2.03 2.505 -1 2 C-0.67 1.34 -0.34 0.68 0 0 Z " fill="#493A33" transform="translate(261,105)"/>
<path d="M0 0 C2.475 0.495 2.475 0.495 5 1 C4.01 1.33 3.02 1.66 2 2 C2.20625 2.928125 2.4125 3.85625 2.625 4.8125 C3 8 3 8 1 11 C0.67 7.37 0.34 3.74 0 0 Z " fill="#80746E" transform="translate(263,380)"/>
<path d="M0 0 C2.875 -0.125 2.875 -0.125 6 0 C6.66 0.66 7.32 1.32 8 2 C6.02 2 4.04 2 2 2 C1.67 2.66 1.34 3.32 1 4 C0.01 4.495 0.01 4.495 -1 5 C-0.67 3.35 -0.34 1.7 0 0 Z " fill="#463730" transform="translate(125,180)"/>
<path d="M0 0 C1.32 0.66 2.64 1.32 4 2 C3.01 2.33 2.02 2.66 1 3 C1 5.64 1 8.28 1 11 C0.67 11 0.34 11 0 11 C-1 4.375 -1 4.375 -1 1 C-0.67 0.67 -0.34 0.34 0 0 Z " fill="#6D605A" transform="translate(259,105)"/>
<path d="M0 0 C0.99 0 1.98 0 3 0 C3 0.66 3 1.32 3 2 C3.66 2 4.32 2 5 2 C5 2.99 5 3.98 5 5 C3.68 4.67 2.36 4.34 1 4 C0.67 2.68 0.34 1.36 0 0 Z " fill="#564741" transform="translate(276,117)"/>
<path d="M0 0 C1.32 0.66 2.64 1.32 4 2 C2.68 2.33 1.36 2.66 0 3 C-0.33 4.65 -0.66 6.3 -1 8 C-1.93065133 5.39417629 -2.14917407 4.35801776 -1.0625 1.75 C-0.711875 1.1725 -0.36125 0.595 0 0 Z " fill="#675953" transform="translate(161,350)"/>
<path d="M0 0 C1 3 1 3 0.0625 5.1875 C-0.4634375 6.0846875 -0.4634375 6.0846875 -1 7 C-1.66 7 -2.32 7 -3 7 C-2.625 4.0625 -2.625 4.0625 -2 1 C-1.34 0.67 -0.68 0.34 0 0 Z " fill="#4B3C35" transform="translate(301,121)"/>
<path d="M0 0 C2.97 0.495 2.97 0.495 6 1 C6 1.99 6 2.98 6 4 C3.03 3.505 3.03 3.505 0 3 C0 2.01 0 1.02 0 0 Z " fill="#E1DBD7" transform="translate(280,111)"/>
</svg>
